<svg width="166" height="50" fill="none" xmlns="http://www.w3.org/2000/svg"><path d="M10.374.014C4.639.014 0 4.616 0 10.305v29.39c0 5.688 4.64 10.29 10.374 10.29 5.727 0 10.366-4.602 10.366-10.29v-29.39C20.776 4.616 16.101.015 10.374.015zm38.874 25.213l-5.212 5.17-2.126 2.11-.093.12c-3.91 4-3.91 10.349.064 14.411 4.06 3.97 10.581 3.942 14.62-.064a10.226 10.226 0 000-14.56l-7.253-7.187zm-8.247 6.826l2.126-2.103 12.457-12.365a10.213 10.213 0 000-14.56c-4.06-4.034-10.61-4.034-14.676 0L26.324 17.494c-4.066 4.034-4.066 10.533.029 14.595L40.091 45.59c-3.092-4-2.849-9.745.788-13.445l.122-.092zm92.461-8.061l-1.332-2.65a1.903 1.903 0 00-.58-.752 1.788 1.788 0 00-.788-.391l2.578-3.423c.036-.036.036-.064.036-.093 0-.028-.036-.028-.093-.028h-.244c-.093 0-.122 0-.179.028-.036.029-.064.057-.122.093l-2.52 3.366h-1.603v-3.366c0-.064 0-.093-.036-.121-.029-.036-.057-.036-.086-.036h-.215c-.064 0-.093 0-.121.036-.029.028-.029.057-.029.12v7.216c0 .064 0 .093.029.121.028.029.057.029.121.029h.215c.057 0 .086 0 .086-.029.036-.028.036-.057.036-.12v-3.43h1.36c.422 0 .787.091 1.031.24.243.15.458.42.637.753l1.246 2.465c.028.064.057.092.086.092.035.029.093.029.186.029h.215a.127.127 0 00.086-.029c.035-.028.035-.057 0-.12zm10.645-3.218h-2.484v-3.7h2.484c.58 0 1.06.177 1.396.483.337.327.516.781.516 1.35 0 .575-.179 1.022-.516 1.356-.336.326-.816.511-1.396.511zm.029-4.155h-2.878c-.065 0-.093 0-.122.036-.028.028-.028.057-.028.12v7.216c0 .064 0 .093.028.121.029.029.057.029.122.029h.215c.057 0 .086 0 .086-.029.035-.028.035-.057.035-.12v-2.77h2.513c.73 0 1.303-.206 1.733-.597.422-.39.637-.966.637-1.683 0-.725-.215-1.3-.637-1.69-.401-.42-.974-.597-1.704-.633zm8.612 2.472v2.585c0 .69-.207 1.2-.601 1.591-.394.362-1.002.575-1.761.575-.788 0-1.368-.177-1.79-.575-.394-.355-.608-.902-.608-1.59V19.09c0-.696.214-1.207.608-1.598.394-.362 1.002-.568 1.79-.568.759 0 1.367.206 1.761.568.422.39.601.937.601 1.598zm-5.247 0v2.585c0 .81.243 1.442.73 1.925.487.454 1.217.689 2.155.689.938 0 1.639-.235 2.119-.69.487-.454.73-1.079.73-1.924v-2.585c0-.817-.243-1.449-.73-1.925-.48-.454-1.181-.696-2.119-.696-.938 0-1.668.242-2.155.696-.487.476-.73 1.108-.73 1.925zm10.252 1.683h-2.485v-3.7h2.485c.58 0 1.066.177 1.396.483.336.327.515.781.515 1.35 0 .575-.179 1.022-.515 1.356-.365.326-.816.511-1.396.511zm.028-4.155h-2.878c-.057 0-.093 0-.121.036-.029.028-.029.057-.029.12v7.216c0 .064 0 .093.029.121.028.029.064.029.121.029h.215c.057 0 .086 0 .086-.029.036-.028.036-.057.036-.12v-2.77h2.513c.73 0 1.303-.206 1.732-.597.423-.39.637-.966.637-1.683 0-.725-.214-1.3-.637-1.69-.394-.42-.974-.597-1.704-.633zm8.097 0h-5.119c-.064 0-.093 0-.121.036-.036.028-.036.057-.036.12v.178c0 .057 0 .093.036.093.028.028.057.028.121.028h2.306v6.917c0 .064 0 .093.028.121.029.029.058.029.122.029h.208c.064 0 .093 0 .093-.029.028-.028.028-.057.028-.12v-6.918h2.306c.064 0 .093 0 .121-.029.029-.035.029-.064.029-.092v-.177c0-.064 0-.093-.029-.121 0 0-.028-.036-.093-.036zm-25.744 0h-.272c-.057 0-.122 0-.151.036-.028 0-.064.057-.093.085l-2.512 3.793-2.52-3.793c-.029-.057-.058-.085-.094-.085-.028 0-.085-.036-.15-.036h-.301c-.064 0-.093 0-.093.036v.085l2.85 4.212-1.819 3.011c-.028.057-.028.092 0 .12.029.03.065.03.122.03h.301c.064 0 .093 0 .093-.03.028-.028.028-.063.064-.12l1.783-2.947 2.885-4.276c.029-.028.029-.057 0-.085 0 0-.029-.036-.093-.036zM68.17 26.761h3.823s.88.029 1.002.029c.243 0 .394.028.515.092.094.057.15.206.15.42v7.371a.601.601 0 01-.056.242.33.33 0 01-.122.12c-.065.029-.122.057-.215.057h-.272c-.122 0-.243 0-.365-.028-.122-.029-.215-.029-.337-.092a.582.582 0 01-.236-.15.32.32 0 01-.093-.241v-6.406h-3.823v6.434a.32.32 0 01-.093.242.682.682 0 01-.236.156 1.188 1.188 0 01-.337.057c-.121 0-.215.028-.336.028h-.3c-.094 0-.151-.028-.216-.056a.284.284 0 01-.121-.121c-.029-.064-.029-.121-.029-.213v-7.4c0-.178.064-.3.15-.392.122-.092.28-.12.516-.12.157 0 1.03-.029 1.03-.029zm10.674 1.35c-.422 0-.787.064-1.06.156a1.183 1.183 0 00-.608.448c-.15.213-.236.482-.272.78-.057.334-.057.725-.057 1.173v.362c0 .454.028.845.057 1.172.064.334.157.603.272.788.157.206.337.362.608.447.273.093.61.15 1.06.15h.065c.422 0 .787-.057 1.06-.15.271-.085.457-.241.608-.447.15-.213.243-.483.272-.788.057-.327.057-.718.057-1.172v-.362c0-.448-.029-.838-.057-1.172-.065-.327-.15-.597-.272-.781a1.154 1.154 0 00-.609-.448 3.236 3.236 0 00-1.06-.156h-.064zm0 6.924a7.09 7.09 0 01-1.453-.149 2.999 2.999 0 01-1.003-.426 2.347 2.347 0 01-.665-.66c-.15-.242-.301-.54-.365-.845a5.051 5.051 0 01-.18-.988c-.028-.362-.028-.724-.028-1.086v-.029c0-.362 0-.753.029-1.086.028-.355.093-.69.179-.988.093-.305.214-.603.365-.845a2.25 2.25 0 01.665-.66 2.855 2.855 0 011.003-.42c.393-.092.88-.156 1.453-.156h.065c.572 0 1.03.064 1.453.157.394.085.73.234 1.002.419.272.177.487.39.666.66.15.242.3.54.365.845.093.299.15.633.179.988.036.362.036.724.036 1.086v.029c0 .362 0 .753-.036 1.086a4.574 4.574 0 01-.179.988 3.637 3.637 0 01-.365.845c-.15.241-.394.483-.666.66a2.999 2.999 0 01-1.002.426c-.394.086-.88.15-1.453.15h-.065zm6.035-.78c-.057.205-.15.354-.207.475a.609.609 0 01-.244.242.502.502 0 01-.3.092c-.122 0-.244.028-.401.028a.983.983 0 01-.301-.056c-.093-.036-.179-.093-.215-.185a.646.646 0 01-.086-.362c0-.15.029-.327.122-.54l2.183-6.193c.086-.27.208-.483.33-.632a.988.988 0 01.394-.306c.121-.057.272-.085.43-.12H87.7c.15 0 .272.063.43.12.121.064.272.185.393.306.122.149.244.362.33.632l2.183 6.193c.065.213.122.39.093.547 0 .149-.028.27-.093.355a.396.396 0 01-.207.184 1.175 1.175 0 01-.308.057c-.15 0-.272 0-.394-.028a.488.488 0 01-.3-.092.786.786 0 01-.244-.242c-.065-.12-.15-.27-.215-.476l-2.033-5.93c-.029-.057-.029-.093-.057-.15-.029-.028-.029-.063-.058-.063h-.186c-.028 0-.057.035-.057.064-.036.028-.036.092-.065.149l-2.033 5.93zm16.896-4.099h3.816v-2.912c0-.092.036-.156.093-.241.064-.064.15-.12.243-.185.093-.057.215-.085.337-.12.121-.029.243-.029.358-.029.243 0 .401.028.515.092.122.057.158.213.158.42v7.428a.563.563 0 01-.065.242c-.028.064-.093.092-.121.12a.381.381 0 01-.208.065h-.279c-.115 0-.237 0-.33-.029-.121-.035-.214-.035-.336-.092a.766.766 0 01-.243-.15.366.366 0 01-.086-.24v-3.012h-3.823v3.011a.344.344 0 01-.093.242.649.649 0 01-.244.149 1.09 1.09 0 01-.329.057c-.122 0-.215.035-.337.035h-.3c-.093 0-.151-.035-.215-.064a.252.252 0 01-.122-.12c-.028-.057-.028-.121-.028-.214v-7.4c0-.178.064-.299.15-.39.122-.086.272-.122.515-.122.122 0 .244 0 .365.036.122.028.215.057.337.085a.54.54 0 01.243.185c.058.057.086.149.086.27v2.883h-.057zm8.856 1.897h2.878l-1.274-3.73c-.029-.056-.029-.091-.058-.148-.036-.029-.036-.064-.064-.064h-.086c-.036 0-.065.035-.065.064-.028.028-.028.092-.057.149l-1.274 3.729zm3.336 1.328h-3.794l-.301.873c-.064.206-.15.355-.215.476a.565.565 0 01-.243.242.474.474 0 01-.301.092c-.122 0-.243.028-.394.028-.121 0-.214-.028-.307-.056-.086-.036-.179-.093-.208-.185-.065-.085-.093-.206-.093-.362 0-.15.028-.327.122-.54l2.183-6.165c.093-.27.215-.483.337-.632a.905.905 0 01.393-.298c.122-.064.272-.093.423-.121h1.059c.151 0 .272.057.43.12.114.057.272.178.394.299.121.15.236.362.329.632l2.183 6.165c.065.213.122.39.122.547 0 .149-.028.27-.093.355a.396.396 0 01-.208.184.97.97 0 01-.307.057c-.151 0-.272 0-.394-.028a.488.488 0 01-.301-.092.866.866 0 01-.243-.242c-.057-.12-.122-.27-.215-.476l-.358-.873zm-17.225-5.206v2.407h-1.49c-.364 0-.694-.028-.908-.092-.244-.057-.423-.12-.544-.213a.758.758 0 01-.272-.355 1.515 1.515 0 01-.094-.547c0-.241.03-.39.094-.54a.809.809 0 01.272-.362c.15-.085.3-.177.544-.206.243-.064.573-.092.938-.092h1.46zm0 3.85v2.648c0 .093.029.178.057.242a.795.795 0 00.18.12c.092.029.157.057.278.057h.638a.98.98 0 00.272-.056c.086-.029.15-.064.179-.121.028-.064.064-.121.064-.213v-7.28c-.036-.12-.036-.178-.064-.27a.972.972 0 00-.15-.213.701.701 0 00-.244-.15 1.447 1.447 0 00-.394-.056h-2.821a5.17 5.17 0 00-.88.12 3.38 3.38 0 00-.788.27c-.243.121-.486.27-.694.476a2.352 2.352 0 00-.487.725 2.71 2.71 0 00-.186 1.051c0 .362.036.668.122.938.093.27.215.475.365.66.15.178.336.327.515.483.215.12.43.234.637.298l-1.603 2.706c-.065.093-.065.15-.065.242 0 .064.029.12.093.184a.477.477 0 00.215.114c.086.035.18.064.272.092a.865.865 0 00.272.029h.215c.15 0 .272-.029.422-.086a.728.728 0 00.33-.27l1.582-2.74h1.668zm-20.561-11.55h1.425c.393 0 .694-.035.937-.091.244-.064.423-.121.544-.213a.584.584 0 00.244-.363c.029-.149.064-.298.064-.476v-.12c0-.185-.035-.334-.064-.483a.603.603 0 00-.243-.363 1.652 1.652 0 00-.516-.241 3.54 3.54 0 00-.88-.092H76.18v2.443zm1.332-3.856c.243 0 .486 0 .73.036.272.028.515.057.787.12.272.057.516.15.76.27.242.121.45.27.636.448.18.185.33.426.451.724.122.27.15.632.15 1.023v.029c0 .39-.057.724-.15 1.022a2.94 2.94 0 01-.393.725c-.18.177-.366.362-.609.483a2.885 2.885 0 01-.723.27c-.243.056-.516.12-.759.12-.272.029-.515.029-.759.029h-1.489v2.613c0 .093-.029.185-.057.213-.057.064-.122.093-.18.121-.092.029-.157.057-.278.057h-.637c-.087 0-.18-.029-.273-.057-.085-.028-.15-.057-.179-.12-.028-.058-.064-.121-.064-.214v-7.28c0-.056.036-.12.064-.177a.97.97 0 01.15-.213.701.701 0 01.244-.15 1.47 1.47 0 01.394-.056h2.184v-.036zm15.435-.028c.393 0 .787.028 1.095.092.33.057.601.15.845.242.243.12.394.241.544.39.122.15.186.327.186.512 0 .056 0 .149-.029.206a.558.558 0 01-.121.213.685.685 0 01-.186.149.726.726 0 01-.272.064c-.094 0-.18 0-.273-.029-.093-.035-.15-.064-.243-.092a1.142 1.142 0 01-.272-.12c-.093-.03-.215-.093-.337-.121a5.407 5.407 0 00-.45-.093c-.18-.028-.366-.028-.609-.028h-.086c-.43 0-.795.057-1.067.149a1.194 1.194 0 00-.608.454c-.15.206-.236.476-.272.782-.058.326-.058.717-.058 1.172v.362c0 .447.03.838.058 1.172.064.334.15.604.272.781.157.213.336.362.608.455a3.49 3.49 0 001.067.149h.086c.243 0 .458 0 .609-.029.178-.035.336-.064.45-.092.122-.028.244-.064.337-.12.093-.03.179-.093.272-.121.093-.029.15-.057.243-.093.094-.028.15-.028.273-.028.121 0 .214.028.272.064a.31.31 0 01.186.149.57.57 0 01.121.206c.03.092.03.156.03.213a.818.818 0 01-.187.511c-.115.15-.3.299-.544.39-.244.122-.516.186-.845.242a5.886 5.886 0 01-1.095.093h-.208c-.58 0-1.067-.064-1.46-.15a3 3 0 01-1.003-.426 2.351 2.351 0 01-.665-.66 2.73 2.73 0 01-.366-.845 5.051 5.051 0 01-.179-.988c-.028-.362-.028-.724-.028-1.086v-.029c0-.362 0-.752.028-1.086a5.05 5.05 0 01.18-.988 3.64 3.64 0 01.365-.845 2.25 2.25 0 01.665-.66 2.995 2.995 0 011.003-.42c.393-.091.88-.155 1.46-.155h.208v.092zm5.276 3.459h3.823v-2.92c0-.084.029-.148.093-.234.057-.064.15-.12.243-.184.086-.057.208-.093.33-.121.122-.029.243-.029.365-.029.243 0 .394.029.515.093.122.057.151.206.151.419v7.4a.377.377 0 01-.058.213.324.324 0 01-.121.121c-.065.029-.122.057-.215.057h-.272c-.122 0-.243 0-.365-.028-.122-.029-.215-.029-.33-.093a.637.637 0 01-.243-.149.332.332 0 01-.093-.241v-2.976h-3.823v2.976a.33.33 0 01-.093.241.668.668 0 01-.236.15 1.18 1.18 0 01-.337.063c-.122 0-.215.029-.336.029h-.301a.403.403 0 01-.215-.064.25.25 0 01-.121-.121c-.03-.057-.03-.12-.03-.206v-7.344c0-.177.065-.298.151-.39.093-.093.272-.121.516-.121.121 0 .243 0 .365.028.121.036.215.064.336.093a.498.498 0 01.244.184c.057.057.086.15.086.27v2.884h-.029zm8.856 1.868h2.885l-1.274-3.73c-.036-.063-.036-.091-.065-.155-.028-.029-.028-.057-.057-.057h-.093c-.029 0-.064.028-.064.057-.029.035-.029.092-.058.156l-1.274 3.729zm3.336 1.32h-3.794l-.301.846c-.057.206-.15.362-.215.483-.057.12-.15.177-.236.241a.555.555 0 01-.308.085c-.122 0-.243.029-.394.029-.121 0-.207-.029-.3-.057s-.186-.092-.215-.177a.68.68 0 01-.093-.363c0-.156.036-.334.122-.547l2.183-6.164c.093-.27.215-.483.337-.633a.907.907 0 01.393-.298c.122-.064.272-.092.423-.12h1.066c.151 0 .273.056.423.12.122.057.272.178.394.299.121.149.243.362.336.632l2.184 6.164c.057.213.121.398.121.547 0 .15-.035.27-.093.363-.064.085-.121.149-.214.177a1.133 1.133 0 01-.301.057c-.15 0-.272 0-.394-.029-.122 0-.215-.056-.308-.085a1.073 1.073 0 01-.236-.241c-.064-.121-.158-.277-.215-.483l-.365-.845zm7.732-5.17v2.408h-1.482c-.365 0-.702-.036-.916-.092-.237-.064-.423-.121-.544-.213a.823.823 0 01-.272-.363 1.592 1.592 0 01-.094-.54c0-.241.036-.39.094-.54a.863.863 0 01.272-.362c.15-.092.307-.177.544-.213a4.42 4.42 0 01.945-.085h1.453zm0 3.821v2.614a.49.49 0 00.064.241c.058.064.122.093.179.121.093.029.151.057.272.057h.638a.886.886 0 00.272-.057c.093-.028.15-.057.186-.12.057-.058.057-.121.057-.214v-7.216c-.029-.12-.029-.184-.057-.27a1.264 1.264 0 00-.151-.213.766.766 0 00-.243-.149 1.416 1.416 0 00-.394-.064h-2.82c-.187 0-.609.064-.881.121a3.941 3.941 0 00-.787.27c-.244.12-.487.277-.702.483a2.484 2.484 0 00-.487.724c-.122.299-.179.632-.179 1.052 0 .362.029.66.122.93.093.277.215.483.365.667.15.178.329.327.515.476.208.121.423.242.638.306l-1.583 2.642c-.057.092-.057.156-.057.241 0 .064.029.121.093.185a.5.5 0 00.208.12l.272.086a.755.755 0 00.279.035h.208c.15 0 .272-.035.429-.092.151-.057.236-.15.33-.27l1.546-2.677h1.668v-.029zm-34.994.029h2.878l-1.274-3.73c-.03-.063-.03-.091-.058-.155-.028-.029-.028-.057-.057-.057h-.093c-.029 0-.064.028-.064.057-.03.035-.03.092-.058.156l-1.274 3.729zm3.336 1.32h-3.794l-.3.846c-.065.206-.151.362-.216.483-.057.12-.15.177-.243.241a.516.516 0 01-.3.085c-.123 0-.244.029-.395.029a.905.905 0 01-.3-.057c-.093-.028-.186-.092-.215-.177a.678.678 0 01-.093-.363c0-.156.036-.334.093-.547l2.183-6.164a2.11 2.11 0 01.337-.633.91.91 0 01.394-.298c.121-.064.272-.092.422-.12h1.06c.15 0 .272.056.43.12.121.057.271.178.393.299.122.149.243.362.33.632l2.183 6.164c.064.213.122.398.122.547a.62.62 0 01-.094.363c-.057.085-.114.149-.207.177a1.175 1.175 0 01-.308.057c-.15 0-.272 0-.394-.029-.121 0-.207-.056-.3-.085a1.115 1.115 0 01-.244-.241c-.057-.121-.15-.277-.215-.483l-.329-.845zm-18.32 1.293a.344.344 0 01-.086.242.609.609 0 01-.244.149.977.977 0 01-.336.064c-.122 0-.208.028-.33.028h-.307a.446.446 0 01-.208-.057.25.25 0 01-.122-.12c-.035-.064-.035-.121-.035-.213v-7.458c0-.184.064-.305.157-.39.122-.093.272-.121.516-.121.121 0 .243 0 .358.028.121.029.214.057.336.093a.454.454 0 01.243.177c.058.057.094.15.094.27v2.742s0 .085.028.113c.029.036.058.036.093.036.058 0 .086 0 .122-.036.029-.028.086-.057.086-.057l3.128-2.947c.086-.093.18-.15.273-.213a1.108 1.108 0 01.515-.178h.272c.057 0 .15 0 .208.029.064.028.157.064.214.12a.64.64 0 01.15.178c.03.092.065.185.065.277 0 .057 0 .12-.036.178 0 .056-.028.12-.085.213-.03.056-.094.149-.187.241-.057.085-.179.178-.3.298l-2.549 2.373c-.057.063-.093.092-.093.156v.177c0 .029.036.093.093.15l2.549 2.379c.121.12.214.206.3.298.065.092.122.185.186.241.03.064.058.15.086.213 0 .057.036.121.036.178 0 .12-.036.213-.064.27a.288.288 0 01-.15.185c-.058.056-.122.085-.18.12a.645.645 0 01-.243.057h-.272a.585.585 0 01-.243-.057 1.29 1.29 0 01-.244-.12c-.093-.064-.186-.121-.272-.213 0 0-2.942-2.77-3.128-2.976-.03-.036-.058-.064-.086-.064-.065-.029-.093-.029-.122-.029-.029 0-.064 0-.093.029-.029.028-.029.12-.029.12v2.827h-.064zm55.834-7.635c0-.156.122-.277.272-.277h.845c.158 0 .279.121.279.277v17.898c0 .15-.121.27-.279.27h-.845a.271.271 0 01-.272-.27V16.896z" fill="#DE210B"/></svg>